<?xml version="1.0" encoding="UTF-8" standalone="no"?><!DOCTYPE svg PUBLIC "-//W3C//DTD SVG 1.1//EN" "http://www.w3.org/Graphics/SVG/1.1/DTD/svg11.dtd"><svg width="100%" height="100%" viewBox="0 0 2000 2000" version="1.1" xmlns="http://www.w3.org/2000/svg" xmlns:xlink="http://www.w3.org/1999/xlink" xml:space="preserve" xmlns:serif="http://www.serif.com/" style="fill-rule:evenodd;clip-rule:evenodd;stroke-linejoin:round;stroke-miterlimit:2;"><rect id="Artboard1" x="0" y="0" width="2000" height="2000" style="fill:none;"/><clipPath id="_clip1"><rect id="Artboard11" serif:id="Artboard1" x="0" y="0" width="2000" height="2000"/></clipPath><g clip-path="url(#_clip1)"><g><path d="M1801.416,1610.22l-1479.148,0c-74.953,-129.822 -114.412,-277.087 -114.412,-426.993c0,-471.328 382.658,-853.986 853.986,-853.986c471.328,0 853.986,382.658 853.986,853.986c0,149.906 -39.46,297.171 -114.412,426.993Z"/><path d="M335.887,1634.057l-311.772,0c-15.798,-27.364 -24.116,-58.404 -24.116,-90.001c0,-99.346 80.656,-180.001 180.001,-180.001c99.346,0 180.001,80.656 180.001,180.001c0,31.597 -8.317,62.637 -24.116,90.001Z"/><path d="M721.629,1670.759l-311.772,0c-15.798,-27.364 -24.116,-58.404 -24.116,-90.001c0,-99.346 80.656,-180.001 180.001,-180.001c99.346,0 180.001,80.656 180.001,180.001c0,31.597 -8.317,62.637 -24.116,90.001Z"/><path d="M1733.724,1670.759l-311.772,0c-15.798,-27.364 -24.116,-58.404 -24.116,-90.001c0,-99.346 80.656,-180.001 180.001,-180.001c99.346,0 180.001,80.656 180.001,180.001c0,31.597 -8.317,62.637 -24.116,90.001Z"/><path d="M1915.828,1610.22c0,13.156 -10.681,23.837 -23.837,23.837l-1554.841,0c-13.156,0 -23.837,-10.681 -23.837,-23.837c0,-13.156 10.681,-23.837 23.837,-23.837l1554.841,0c13.156,0 23.837,10.681 23.837,23.837Z"/><path d="M2000,1627.886l-271.657,15.361l86.762,-214.98l184.894,199.618Z"/></g></g></svg>